<?xml version="1.0" encoding="UTF-8"?><svg id="Laag_1" xmlns="http://www.w3.org/2000/svg" viewBox="0 0 173.19 107.61"><defs><style>.cls-1{letter-spacing:-.11em;}.cls-1,.cls-2,.cls-3,.cls-4,.cls-5,.cls-6{stroke:#fa6f08;}.cls-1,.cls-5{fill:#fa6f08;stroke-width:.25px;}.cls-7{font-family:RalewayRoman-Regular, Raleway;font-size:36px;font-variation-settings:'wght' 400;}.cls-7,.cls-8,.cls-3,.cls-4,.cls-9,.cls-10,.cls-6{stroke-miterlimit:10;}.cls-2,.cls-8,.cls-11,.cls-3,.cls-4,.cls-9{stroke-linecap:round;}.cls-2,.cls-11{stroke-linejoin:round;}.cls-2,.cls-11,.cls-3,.cls-4,.cls-9,.cls-10,.cls-6{stroke-width:3px;}.cls-2,.cls-3{fill:#cd5e31;}.cls-8{stroke-width:4px;}.cls-8,.cls-12,.cls-11,.cls-9,.cls-10{stroke:#fff;}.cls-8,.cls-11,.cls-4,.cls-9,.cls-6{fill:none;}.cls-12{fill:#fff;letter-spacing:0em;stroke-width:.5px;}.cls-5{letter-spacing:-.03em;}.cls-10{fill:#222221;}</style></defs><text class="cls-7" transform="translate(85.65 58.75)"><tspan class="cls-1" x="0" y="0">T</tspan><tspan class="cls-12" x="17.93" y="0">oo</tspan><tspan class="cls-5" x="60.77" y="0">l</tspan></text><line class="cls-3" x1="29.58" y1="31.59" x2="19.83" y2="74"/><path class="cls-11" d="M71.25,74.75c-4.06,2.93-8.76,6.84-13.3,11.91-6.46,7.2-10.31,14.17-12.64,19.45"/><line class="cls-2" x1="57.95" y1="31.59" x2="71.17" y2="74.41"/><path class="cls-9" d="M19.81,74.59c4.06,2.93,8.76,6.84,13.3,11.91,6.46,7.2,10.31,14.17,12.64,19.45"/><line class="cls-6" x1="45.84" y1="104.2" x2="45.54" y2="62.84"/><ellipse class="cls-10" cx="45.54" cy="62.1" rx="1.77" ry="1.49"/><path class="cls-9" d="M1.5,4.69c1.24,1.86,15.96,23.04,41.64,23.01,17.34-.02,29.14-9.71,32.39-12.58"/><path class="cls-4" d="M75.53,14.57c0-3.88-30.95-23.25-61.78-6.07"/><ellipse class="cls-8" cx="45.19" cy="12.67" rx="4.96" ry="4.41"/></svg>